<?xml version="1.0" encoding="UTF-8"?>
<svg width="75px" height="75px" viewBox="0 0 75 75" version="1.1" xmlns="http://www.w3.org/2000/svg" xmlns:xlink="http://www.w3.org/1999/xlink">
    <!-- Generator: Sketch 48.2 (47327) - http://www.bohemiancoding.com/sketch -->
    <title>jasmine-white-horizontal copy</title>
    <desc>Created with Sketch.</desc>
    <defs/>
    <g id="Page-1" stroke="none" stroke-width="1" fill="none" fill-rule="evenodd">
        <g id="jasmine-white-horizontal-copy" fill="#FFFFFF" fill-rule="nonzero">
            <g id="logo" >
                <g>
                    <polyline id="path36" points="26.2168495 33.284074 30.6154464 33.284074 31.7080918 34.7883214 31.7080918 46.5722959 25.1245434 46.5722959 25.1245434 34.7874005 26.2168495 33.284074"/>
                    <polyline id="path38" points="23.3813903 28.0278112 24.7404235 32.2109133 23.6473903 33.7154031 12.4401531 37.3568112 10.405602 31.0953903 21.6144872 27.4535459 23.3813903 28.0278112"/>
                    <polyline id="path40" points="27.5039056 23.7066199 23.9457679 26.2929464 22.1772168 25.7173724 15.2507959 16.1838316 20.5767577 12.3146173 27.5039056 21.8486913 27.5039056 23.7066199"/>
                    <polyline id="path42" points="32.887449 26.2929464 29.3285357 23.7075893 29.3290689 21.848352 36.2552959 12.3146173 41.5818878 16.1838316 34.6543036 25.7182934 32.887449 26.2929464"/>
                    <polyline id="path44" points="32.0909031 32.2120765 33.4507117 28.028199 35.2190689 27.4545153 46.4264031 31.0953903 44.3921429 37.3568112 33.1841301 33.7148214 32.0909031 32.2120765"/>
                    <path d="M28.4176505,56.8003061 C12.7597602,56.8003061 0.0206479592,44.0635204 0.0206479592,28.4078112 C0.0206479592,12.7464796 12.7597602,0.00586479592 28.4176505,0.00586479592 C44.0741837,0.00586479592 56.8114541,12.7464796 56.8114541,28.4078112 C56.8114541,44.0635204 44.0741837,56.8003061 28.4176505,56.8003061 Z M28.4176505,51.051352 C40.9213954,51.051352 51.0620153,40.914949 51.0620153,28.4078112 C51.0620153,15.8964566 40.9213954,5.7557398 28.4176505,5.7557398 C15.9089617,5.7557398 5.7701352,15.8964566 5.7701352,28.4078112 C5.7701352,40.914949 15.9089617,51.051352 28.4176505,51.051352 Z" id="path46"/>
                    <polyline id="path48" points="45.6159949 22.0963699 37.0964821 24.8649898 37.6601327 26.6005816 46.1792092 23.8319617 45.6159949 22.0963699"/>
                    <polyline id="path50" points="34.7504668 35.7739949 33.2742347 36.8463801 38.5390281 44.0940561 40.015648 43.0219133 34.7504668 35.7739949"/>
                    <polyline id="path52" points="22.1730485 35.8404464 16.9087883 43.0878316 18.3854082 44.1604592 23.6496684 36.9126378 22.1730485 35.8404464"/>
                    <polyline id="path54" points="11.1813061 22.2052321 10.617801 23.9404847 19.1366837 26.707602 19.6999464 24.9723495 11.1813061 22.2052321"/>
                    <polygon id="path56" points="27.4476811 10.3041071 29.272098 10.3041071 29.272098 19.2620255 27.4476811 19.2620255 27.4476811 10.3041071"/>
                </g>
            </g>
        </g>
    </g>
</svg>
